<mxfile host="Electron" agent="Mozilla/5.0 (Macintosh; Intel Mac OS X 10_15_7) AppleWebKit/537.36 (KHTML, like Gecko) draw.io/24.7.8 Chrome/128.0.6613.36 Electron/32.0.1 Safari/537.36" version="24.7.8">
  <diagram name="Seite-1" id="Pwz3s4yv5dByKD4ibGCL">
    <mxGraphModel dx="1114" dy="840" grid="1" gridSize="10" guides="1" tooltips="1" connect="1" arrows="1" fold="1" page="1" pageScale="1" pageWidth="827" pageHeight="1169" math="0" shadow="0">
      <root>
        <mxCell id="0" />
        <mxCell id="1" parent="0" />
        <mxCell id="Hb0Odp249pAdjkdP0iQM-40" value="PacketFrame frame;" style="swimlane;whiteSpace=wrap;html=1;fontFamily=Courier New;" parent="1" vertex="1">
          <mxGeometry x="10" y="610" width="800" height="580" as="geometry" />
        </mxCell>
        <mxCell id="Hb0Odp249pAdjkdP0iQM-51" value="Packet packet;" style="swimlane;whiteSpace=wrap;html=1;fontFamily=Courier New;" parent="Hb0Odp249pAdjkdP0iQM-40" vertex="1">
          <mxGeometry x="10" y="30" width="780" height="520" as="geometry" />
        </mxCell>
        <mxCell id="Hb0Odp249pAdjkdP0iQM-52" value="&lt;div style=&quot;color: rgb(59, 59, 59); background-color: rgb(255, 255, 255); font-family: Menlo, Monaco, &amp;quot;Courier New&amp;quot;, monospace; line-height: 18px; white-space: pre;&quot;&gt;&lt;div&gt;&lt;span style=&quot;color: #267f99;&quot;&gt;PacketType&lt;/span&gt; &lt;span style=&quot;color: #001080;&quot;&gt;type&lt;/span&gt;     : &lt;span style=&quot;color: #098658;&quot;&gt;2&lt;/span&gt;;&lt;/div&gt;&lt;div&gt;&lt;span style=&quot;color: #267f99;&quot;&gt;PacketSource&lt;/span&gt; &lt;span style=&quot;color: #001080;&quot;&gt;source&lt;/span&gt; : &lt;span style=&quot;color: #098658;&quot;&gt;2&lt;/span&gt;;&lt;/div&gt;&lt;div&gt;&lt;span style=&quot;color: #267f99;&quot;&gt;uint8_t&lt;/span&gt; &lt;span style=&quot;color: #001080;&quot;&gt;seqnum&lt;/span&gt;      : &lt;span style=&quot;color: #098658;&quot;&gt;3&lt;/span&gt;;&lt;/div&gt;&lt;div&gt;&lt;span style=&quot;color: #267f99;&quot;&gt;uint8_t&lt;/span&gt; &lt;span style=&quot;color: #001080;&quot;&gt;reserved&lt;/span&gt;    : &lt;span style=&quot;color: #098658;&quot;&gt;1&lt;/span&gt;;&lt;/div&gt;&lt;/div&gt;" style="text;html=1;align=left;verticalAlign=middle;whiteSpace=wrap;rounded=0;fontFamily=Courier New;" parent="Hb0Odp249pAdjkdP0iQM-51" vertex="1">
          <mxGeometry y="20" width="210" height="90" as="geometry" />
        </mxCell>
        <mxCell id="Hb0Odp249pAdjkdP0iQM-53" value="ControlPacket control;" style="swimlane;whiteSpace=wrap;html=1;fontFamily=Courier New;startSize=23;" parent="Hb0Odp249pAdjkdP0iQM-51" vertex="1">
          <mxGeometry x="10" y="110" width="185" height="400" as="geometry" />
        </mxCell>
        <mxCell id="Hb0Odp249pAdjkdP0iQM-54" value="&lt;div style=&quot;background-color: rgb(255, 255, 255); font-family: Menlo, Monaco, &amp;quot;Courier New&amp;quot;, monospace; line-height: 18px; white-space: pre;&quot;&gt;&lt;div style=&quot;color: rgb(59, 59, 59);&quot;&gt;&lt;span style=&quot;color: #267f99;&quot;&gt;uint16_t&lt;/span&gt; &lt;span style=&quot;color: #001080;&quot;&gt;axis0&lt;/span&gt; : &lt;span style=&quot;color: #098658;&quot;&gt;10&lt;/span&gt;;&lt;/div&gt;&lt;div style=&quot;color: rgb(59, 59, 59);&quot;&gt;&lt;span style=&quot;color: #267f99;&quot;&gt;uint16_t&lt;/span&gt; &lt;span style=&quot;color: #001080;&quot;&gt;axis1&lt;/span&gt; : &lt;span style=&quot;color: #098658;&quot;&gt;10&lt;/span&gt;;&lt;/div&gt;&lt;div style=&quot;color: rgb(59, 59, 59);&quot;&gt;&lt;span style=&quot;color: #267f99;&quot;&gt;uint16_t&lt;/span&gt; &lt;span style=&quot;color: #001080;&quot;&gt;axis2&lt;/span&gt; : &lt;span style=&quot;color: #098658;&quot;&gt;10&lt;/span&gt;;&lt;/div&gt;&lt;div style=&quot;color: rgb(59, 59, 59);&quot;&gt;&lt;span style=&quot;color: #267f99;&quot;&gt;uint16_t&lt;/span&gt; &lt;span style=&quot;color: #001080;&quot;&gt;axis3&lt;/span&gt; : &lt;span style=&quot;color: #098658;&quot;&gt;10&lt;/span&gt;;&lt;/div&gt;&lt;div style=&quot;color: rgb(59, 59, 59);&quot;&gt;&lt;span style=&quot;color: #267f99;&quot;&gt;uint16_t&lt;/span&gt; &lt;span style=&quot;color: #001080;&quot;&gt;axis4&lt;/span&gt; : &lt;span style=&quot;color: #098658;&quot;&gt;10&lt;/span&gt;;&lt;/div&gt;&lt;div style=&quot;color: rgb(59, 59, 59);&quot;&gt;&lt;span style=&quot;color: #267f99;&quot;&gt;uint8_t&lt;/span&gt; &lt;span style=&quot;color: #001080;&quot;&gt;axis5&lt;/span&gt;;&lt;/div&gt;&lt;div style=&quot;color: rgb(59, 59, 59);&quot;&gt;&lt;span style=&quot;color: #267f99;&quot;&gt;uint8_t&lt;/span&gt; &lt;span style=&quot;color: #001080;&quot;&gt;axis6&lt;/span&gt;;&lt;/div&gt;&lt;div style=&quot;color: rgb(59, 59, 59);&quot;&gt;&lt;span style=&quot;color: #267f99;&quot;&gt;uint8_t&lt;/span&gt; &lt;span style=&quot;color: #001080;&quot;&gt;axis7&lt;/span&gt;;&lt;/div&gt;&lt;div style=&quot;color: rgb(59, 59, 59);&quot;&gt;&lt;span style=&quot;color: #267f99;&quot;&gt;uint8_t&lt;/span&gt; &lt;span style=&quot;color: #001080;&quot;&gt;axis8&lt;/span&gt;;&lt;/div&gt;&lt;div style=&quot;color: rgb(59, 59, 59);&quot;&gt;&lt;span style=&quot;color: #267f99;&quot;&gt;uint8_t&lt;/span&gt; &lt;span style=&quot;color: #001080;&quot;&gt;axis9&lt;/span&gt;;&lt;/div&gt;&lt;div style=&quot;color: rgb(59, 59, 59);&quot;&gt;&lt;span style=&quot;color: #0000ff;&quot;&gt;bool&lt;/span&gt; &lt;span style=&quot;color: #001080;&quot;&gt;button0&lt;/span&gt;    : &lt;span style=&quot;color: #098658;&quot;&gt;1&lt;/span&gt;;&lt;/div&gt;&lt;div style=&quot;color: rgb(59, 59, 59);&quot;&gt;&lt;span style=&quot;color: #0000ff;&quot;&gt;bool&lt;/span&gt; &lt;span style=&quot;color: #001080;&quot;&gt;button1&lt;/span&gt;    : &lt;span style=&quot;color: #098658;&quot;&gt;1&lt;/span&gt;;&lt;/div&gt;&lt;div style=&quot;color: rgb(59, 59, 59);&quot;&gt;&lt;span style=&quot;color: #0000ff;&quot;&gt;bool&lt;/span&gt; &lt;span style=&quot;color: #001080;&quot;&gt;button2&lt;/span&gt;    : &lt;span style=&quot;color: #098658;&quot;&gt;1&lt;/span&gt;;&lt;/div&gt;&lt;div style=&quot;color: rgb(59, 59, 59);&quot;&gt;&lt;span style=&quot;color: #0000ff;&quot;&gt;bool&lt;/span&gt; &lt;span style=&quot;color: #001080;&quot;&gt;button3&lt;/span&gt;    : &lt;span style=&quot;color: #098658;&quot;&gt;1&lt;/span&gt;;&lt;/div&gt;&lt;div style=&quot;color: rgb(59, 59, 59);&quot;&gt;&lt;span style=&quot;color: #0000ff;&quot;&gt;bool&lt;/span&gt; &lt;span style=&quot;color: #001080;&quot;&gt;button4&lt;/span&gt;    : &lt;span style=&quot;color: #098658;&quot;&gt;1&lt;/span&gt;;&lt;/div&gt;&lt;div style=&quot;color: rgb(59, 59, 59);&quot;&gt;&lt;span style=&quot;color: #0000ff;&quot;&gt;bool&lt;/span&gt; &lt;span style=&quot;color: #001080;&quot;&gt;button5&lt;/span&gt;    : &lt;span style=&quot;color: #098658;&quot;&gt;1&lt;/span&gt;;&lt;/div&gt;&lt;div style=&quot;color: rgb(59, 59, 59);&quot;&gt;&lt;span style=&quot;color: #0000ff;&quot;&gt;bool&lt;/span&gt; &lt;span style=&quot;color: #001080;&quot;&gt;button6&lt;/span&gt;    : &lt;span style=&quot;color: #098658;&quot;&gt;1&lt;/span&gt;;&lt;/div&gt;&lt;div style=&quot;color: rgb(59, 59, 59);&quot;&gt;&lt;span style=&quot;color: #0000ff;&quot;&gt;bool&lt;/span&gt; &lt;span style=&quot;color: #001080;&quot;&gt;button7&lt;/span&gt;    : &lt;span style=&quot;color: #098658;&quot;&gt;1&lt;/span&gt;;&lt;/div&gt;&lt;div style=&quot;&quot;&gt;&lt;span style=&quot;color: rgb(38, 127, 153);&quot;&gt;uint8_t&lt;/span&gt;&lt;font color=&quot;#3b3b3b&quot;&gt; &lt;/font&gt;&lt;span style=&quot;color: rgb(0, 16, 128);&quot;&gt;battery&lt;/span&gt;&lt;font color=&quot;#3b3b3b&quot;&gt; : &lt;/font&gt;&lt;font color=&quot;#098658&quot;&gt;5&lt;/font&gt;&lt;font color=&quot;#3b3b3b&quot;&gt;;&lt;/font&gt;&lt;/div&gt;&lt;div style=&quot;&quot;&gt;&lt;font color=&quot;#3b3b3b&quot;&gt;bool primary    : 1;&lt;/font&gt;&lt;/div&gt;&lt;/div&gt;" style="text;html=1;align=left;verticalAlign=top;whiteSpace=wrap;rounded=0;fontFamily=Courier New;" parent="Hb0Odp249pAdjkdP0iQM-53" vertex="1">
          <mxGeometry y="25" width="170" height="355" as="geometry" />
        </mxCell>
        <mxCell id="Hb0Odp249pAdjkdP0iQM-55" value="StatePacket state;" style="swimlane;whiteSpace=wrap;html=1;fontFamily=Courier New;startSize=23;" parent="Hb0Odp249pAdjkdP0iQM-51" vertex="1">
          <mxGeometry x="200" y="110" width="185" height="400" as="geometry" />
        </mxCell>
        <mxCell id="Hb0Odp249pAdjkdP0iQM-56" value="&amp;nbsp;ConfigPacket config;" style="swimlane;whiteSpace=wrap;html=1;fontFamily=Courier New;startSize=23;" parent="Hb0Odp249pAdjkdP0iQM-51" vertex="1">
          <mxGeometry x="393.5" y="110" width="185" height="400" as="geometry" />
        </mxCell>
        <mxCell id="Hb0Odp249pAdjkdP0iQM-57" value="&lt;div style=&quot;color: rgb(59, 59, 59); background-color: rgb(255, 255, 255); font-family: Menlo, Monaco, &amp;quot;Courier New&amp;quot;, monospace; line-height: 18px; white-space: pre;&quot;&gt;&lt;div style=&quot;line-height: 18px;&quot;&gt;&lt;div&gt;&lt;span style=&quot;color: #267f99;&quot;&gt;ConfigType&lt;/span&gt; &lt;span style=&quot;color: #001080;&quot;&gt;type&lt;/span&gt;;&lt;/div&gt;&lt;div&gt;&lt;div style=&quot;line-height: 18px;&quot;&gt;&lt;span style=&quot;color: #267f99;&quot;&gt;uint16_t&lt;/span&gt; &lt;span style=&quot;color: #001080;&quot;&gt;parameter&lt;/span&gt;;&lt;/div&gt;&lt;/div&gt;&lt;div&gt;&lt;/div&gt;&lt;/div&gt;&lt;/div&gt;" style="text;html=1;align=left;verticalAlign=top;whiteSpace=wrap;rounded=0;fontFamily=Courier New;" parent="Hb0Odp249pAdjkdP0iQM-56" vertex="1">
          <mxGeometry y="25" width="170" height="35" as="geometry" />
        </mxCell>
        <mxCell id="Hb0Odp249pAdjkdP0iQM-58" value="PairingPacket pairing;" style="swimlane;whiteSpace=wrap;html=1;fontFamily=Courier New;startSize=23;" parent="Hb0Odp249pAdjkdP0iQM-51" vertex="1">
          <mxGeometry x="585" y="110" width="185" height="400" as="geometry" />
        </mxCell>
        <mxCell id="Hb0Odp249pAdjkdP0iQM-59" value="&lt;div style=&quot;color: rgb(59, 59, 59); background-color: rgb(255, 255, 255); font-family: Menlo, Monaco, &amp;quot;Courier New&amp;quot;, monospace; line-height: 18px; white-space: pre;&quot;&gt;&lt;div style=&quot;line-height: 18px;&quot;&gt;&lt;div&gt;&lt;span style=&quot;color: #267f99;&quot;&gt;uint8_t&lt;/span&gt; &lt;span style=&quot;color: #001080;&quot;&gt;dummy&lt;/span&gt;;&lt;/div&gt;&lt;div&gt;&lt;/div&gt;&lt;/div&gt;&lt;/div&gt;" style="text;html=1;align=left;verticalAlign=top;whiteSpace=wrap;rounded=0;fontFamily=Courier New;" parent="Hb0Odp249pAdjkdP0iQM-58" vertex="1">
          <mxGeometry y="25" width="170" height="355" as="geometry" />
        </mxCell>
        <mxCell id="Hb0Odp249pAdjkdP0iQM-60" value="&lt;div style=&quot;color: rgb(59, 59, 59); background-color: rgb(255, 255, 255); font-family: Menlo, Monaco, &amp;quot;Courier New&amp;quot;, monospace; line-height: 18px; white-space: pre;&quot;&gt;&lt;div style=&quot;line-height: 18px;&quot;&gt;&lt;div&gt;&lt;span style=&quot;color: #267f99;&quot;&gt;CtrlType&lt;/span&gt; &lt;span style=&quot;color: #001080;&quot;&gt;driveCtrl&lt;/span&gt; : &lt;span style=&quot;color: #098658;&quot;&gt;2&lt;/span&gt;;&lt;/div&gt;&lt;div&gt;&lt;span style=&quot;color: #267f99;&quot;&gt;CtrlType&lt;/span&gt; &lt;span style=&quot;color: #001080;&quot;&gt;domeCtrl&lt;/span&gt;  : &lt;span style=&quot;color: #098658;&quot;&gt;2&lt;/span&gt;;&lt;/div&gt;&lt;div&gt;&lt;span style=&quot;color: #267f99;&quot;&gt;CtrlType&lt;/span&gt; &lt;span style=&quot;color: #001080;&quot;&gt;armsCtrl&lt;/span&gt;  : &lt;span style=&quot;color: #098658;&quot;&gt;2&lt;/span&gt;;&lt;/div&gt;&lt;div&gt;&lt;span style=&quot;color: #267f99;&quot;&gt;CtrlType&lt;/span&gt; &lt;span style=&quot;color: #001080;&quot;&gt;soundCtrl&lt;/span&gt; : &lt;span style=&quot;color: #098658;&quot;&gt;2&lt;/span&gt;;&lt;/div&gt;&lt;br&gt;&lt;div&gt;&lt;span style=&quot;color: #267f99;&quot;&gt;StatusType&lt;/span&gt; &lt;span style=&quot;color: #001080;&quot;&gt;battery&lt;/span&gt;  : &lt;span style=&quot;color: #098658;&quot;&gt;2&lt;/span&gt;;&lt;/div&gt;&lt;div&gt;&lt;span style=&quot;color: #267f99;&quot;&gt;StatusType&lt;/span&gt; &lt;span style=&quot;color: #001080;&quot;&gt;drive&lt;/span&gt;    : &lt;span style=&quot;color: #098658;&quot;&gt;2&lt;/span&gt;;&lt;/div&gt;&lt;div&gt;&lt;span style=&quot;color: #267f99;&quot;&gt;StatusType&lt;/span&gt; &lt;span style=&quot;color: #001080;&quot;&gt;servos&lt;/span&gt;   : &lt;span style=&quot;color: #098658;&quot;&gt;2&lt;/span&gt;;&lt;/div&gt;&lt;div&gt;&lt;span style=&quot;color: #267f99;&quot;&gt;StatusType&lt;/span&gt; &lt;span style=&quot;color: #001080;&quot;&gt;comm&lt;/span&gt;     : &lt;span style=&quot;color: #098658;&quot;&gt;2&lt;/span&gt;;&lt;/div&gt;&lt;div&gt;&lt;/div&gt;&lt;/div&gt;&lt;/div&gt;" style="text;html=1;align=left;verticalAlign=top;whiteSpace=wrap;rounded=0;fontFamily=Courier New;" parent="Hb0Odp249pAdjkdP0iQM-40" vertex="1">
          <mxGeometry x="210" y="165" width="180" height="375" as="geometry" />
        </mxCell>
        <mxCell id="Hb0Odp249pAdjkdP0iQM-61" value="&lt;div style=&quot;color: rgb(59, 59, 59); background-color: rgb(255, 255, 255); font-family: Menlo, Monaco, &amp;quot;Courier New&amp;quot;, monospace; line-height: 18px; white-space: pre;&quot;&gt;&lt;span style=&quot;color: #267f99;&quot;&gt;uint8_t&lt;/span&gt; &lt;span style=&quot;color: #001080;&quot;&gt;crc&lt;/span&gt;;&lt;/div&gt;" style="text;html=1;align=left;verticalAlign=middle;whiteSpace=wrap;rounded=0;fontFamily=Courier New;" parent="Hb0Odp249pAdjkdP0iQM-40" vertex="1">
          <mxGeometry y="550" width="240" height="30" as="geometry" />
        </mxCell>
      </root>
    </mxGraphModel>
  </diagram>
</mxfile>
